<svg width="141" height="58" viewBox="0 0 141 58" fill="none" xmlns="http://www.w3.org/2000/svg">
<path d="M125.815 56H11.2262C9.1169 56 7.08084 55.2265 5.50359 53.826C2.33378 51.0114 1.68126 46.3097 3.96481 42.7383L4.12892 42.4816C5.54548 40.2662 7.86234 38.7833 10.4674 38.4249L18.7075 37.2911C19.7664 37.1454 20.7289 36.5983 21.3958 35.7629C26.5213 29.3429 34.4738 25.8505 42.6691 26.4208L43.9958 26.5132C46.3014 26.6736 48.4295 25.0957 49.4507 23.0224C51.1945 19.482 54.9326 14.0158 62.6613 9.1418C75.3844 1.1181 98.6041 -1.7704 109.101 9.1418C114.979 15.2532 116.967 20.2573 117.578 23.4774C117.982 25.6066 119.469 27.8011 121.592 28.2368L127.273 29.4027C132.832 30.5435 137.158 34.9187 138.235 40.4904L138.307 40.8614C138.76 43.2038 138.545 45.6264 137.687 47.8526C135.795 52.7617 131.076 56 125.815 56Z" stroke="white" stroke-width="4" stroke-linecap="round"/>
</svg>
