<svg width="87" height="38" viewBox="0 0 87 38" fill="none" xmlns="http://www.w3.org/2000/svg">
<path d="M77.638 36H10.6154C8.13301 36 5.74496 35.0489 3.94224 33.3423C3.10642 32.5511 2.38405 31.6182 2.1604 30.4891C1.77444 28.5408 1.821 25.2279 5.39257 22.5109C10.8207 18.3816 14.0775 19.2075 20.5913 18.3816C27.105 17.5558 24.1195 14.8028 33.3473 7.37009C42.5751 -0.0626402 57.231 0.487869 65.3732 7.37009C69.7313 11.0538 71.5235 14.1855 72.2479 16.3007C72.8007 17.9146 73.8975 19.5989 75.5189 20.1294L78.8953 21.2341C80.3462 21.7089 81.6366 22.5779 82.622 23.744L83.0771 24.2825C84.8607 26.3931 85.2622 29.345 84.1072 31.8553C82.945 34.3814 80.4187 36 77.638 36Z" stroke="white" stroke-width="4" stroke-linecap="round"/>
</svg>
