<svg width="141" height="58" viewBox="0 0 141 58" fill="none" xmlns="http://www.w3.org/2000/svg">
<path d="M15.1847 56H129.774C131.883 56 133.919 55.2265 135.496 53.826C138.666 51.0114 139.319 46.3097 137.035 42.7383L136.871 42.4816C135.455 40.2662 133.138 38.7833 130.533 38.4249L122.293 37.2911C121.234 37.1454 120.271 36.5983 119.604 35.7629C114.479 29.3429 106.526 25.8505 98.3309 26.4208L97.0042 26.5132C94.6986 26.6736 92.5705 25.0957 91.5493 23.0224C89.8055 19.482 86.0674 14.0158 78.3387 9.1418C65.6156 1.1181 42.3959 -1.7704 31.8993 9.1418C26.0207 15.2532 24.033 20.2573 23.4219 23.4774C23.0178 25.6066 21.5311 27.8011 19.4082 28.2368L13.727 29.4027C8.16798 30.5435 3.84235 34.9187 2.76491 40.4904L2.69316 40.8614C2.24019 43.2038 2.45497 45.6264 3.31296 47.8526C5.20502 52.7617 9.92354 56 15.1847 56Z" stroke="white" stroke-width="4" stroke-linecap="round"/>
</svg>
