<svg width="72" height="72" viewBox="0 0 72 72" fill="none" xmlns="http://www.w3.org/2000/svg">
<path fill-rule="evenodd" clip-rule="evenodd" d="M29 37C29 38.1046 29.8954 39 31 39H38C39.1046 39 40 38.1046 40 37C40 35.8954 39.1046 35 38 35H31C29.8954 35 29 35.8954 29 37Z" fill="white"/>
<path fill-rule="evenodd" clip-rule="evenodd" d="M55.7963 28.0935L65.8485 29.5295C68.8044 29.9518 71 32.4833 71 35.4692V40C71 43.3137 68.3137 46 65 46H63.748C62.8599 49.4505 59.7277 52 56 52C52.2723 52 49.1401 49.4505 48.252 46H23.748C22.8599 49.4505 19.7277 52 16 52C12.2723 52 9.14012 49.4505 8.25204 46H7C3.68629 46 1 43.3137 1 40V32.8708C1 31.0925 1.78891 29.4057 3.15386 28.2657L13.7753 19.3949C14.8543 18.4937 16.2155 18 17.6214 18H40.4828C41.7931 18 43.0675 18.429 44.1111 19.2213L55.7963 28.0935ZM16.3394 22.465C16.3875 22.4248 16.4373 22.387 16.4886 22.3517L15.9071 24.1932C14.6859 28.0603 17.5732 32 21.6286 32H54.8579L65.2828 33.4893C66.2681 33.63 67 34.4739 67 35.4692V40C67 41.1046 66.1046 42 65 42H63.748C62.8599 38.5495 59.7277 36 56 36C52.2723 36 49.1401 38.5495 48.252 42H23.748C22.8599 38.5495 19.7277 36 16 36C12.2723 36 9.14012 38.5495 8.25204 42H7C5.89543 42 5 41.1046 5 40V32.8708C5 32.5656 5.06975 32.2684 5.19954 32H10C11.1046 32 12 31.1046 12 30C12 28.6911 10.8944 28 9.71203 28L16.3394 22.465ZM12 44C12 41.7909 13.7909 40 16 40C18.2091 40 20 41.7909 20 44C20 46.2091 18.2091 48 16 48C13.7909 48 12 46.2091 12 44ZM52 44C52 41.7909 53.7909 40 56 40C58.2091 40 60 41.7909 60 44C60 46.2091 58.2091 48 56 48C53.7909 48 52 46.2091 52 44ZM20.7944 22L19.7214 25.3977C19.3144 26.6868 20.2768 28 21.6286 28H49.0585L41.6922 22.4071C41.3444 22.143 40.9196 22 40.4828 22H20.7944Z" fill="white"/>
</svg>
