<svg width="22" height="17" viewBox="0 0 22 17" fill="none" xmlns="http://www.w3.org/2000/svg">
<path d="M6.91856 16.9998C15.2205 16.9998 19.7613 10.4588 19.7613 4.78648C19.7613 4.6007 19.7613 4.41575 19.7481 4.23164C20.6315 3.624 21.394 2.87162 22 2.00975C21.1762 2.35688 20.3023 2.58453 19.4075 2.6851C20.3498 2.14865 21.055 1.30491 21.3919 0.310904C20.5059 0.810896 19.5366 1.16327 18.5258 1.35281C17.8452 0.664636 16.9452 0.208947 15.9648 0.0562557C14.9845 -0.0964354 13.9786 0.0623842 13.1028 0.508138C12.227 0.953892 11.53 1.66173 11.1198 2.52211C10.7097 3.3825 10.6091 4.34746 10.8337 5.26768C9.03914 5.18213 7.28358 4.73864 5.68096 3.96601C4.07835 3.19338 2.6645 2.10887 1.5312 0.782898C0.954001 1.72786 0.777216 2.8465 1.03684 3.91107C1.29647 4.97563 1.97298 5.90607 2.92864 6.51294C2.21033 6.4927 1.50769 6.30842 0.88 5.97567C0.88 5.99325 0.88 6.01166 0.88 6.03007C0.880285 7.02111 1.24103 7.98154 1.90105 8.74847C2.56107 9.5154 3.47972 10.0416 4.5012 10.2378C3.83669 10.4102 3.13947 10.4354 2.46312 10.3115C2.75155 11.1644 3.31308 11.9103 4.06918 12.4447C4.82528 12.9792 5.73814 13.2756 6.68008 13.2924C5.08177 14.487 3.10733 15.1355 1.07448 15.1335C0.715355 15.1329 0.35658 15.1122 0 15.0716C2.06416 16.3313 4.46592 16.9995 6.91856 16.9964" fill="white"/>
</svg>
