<svg width="110" height="123" viewBox="0 0 110 123" fill="none" xmlns="http://www.w3.org/2000/svg">
<path d="M46.4999 120.5V32.5" stroke="white" stroke-width="4" stroke-linecap="round"/>
<path d="M46.1421 59.1421L31.9999 45" stroke="white" stroke-width="4" stroke-linecap="round"/>
<path d="M47 95.2843L75.2842 67" stroke="white" stroke-width="4" stroke-linecap="round"/>
<path d="M83.4999 49.9999C93.4999 30.9999 72 27.7075 69.5 14.0001C67.0489 0.561038 31.9162 -6.71189 22.8126 21.476C22.4597 22.5688 21.7555 23.5435 20.7789 24.1476V24.1476C8.9633 31.4559 4.56371 46.4999 10.5796 59.023L12.6645 63.3628C18.5481 75.6105 33.2169 80.8092 45.5 74.9999V74.9999" stroke="white" stroke-width="4" stroke-linecap="round"/>
<path d="M58.9999 81C35.4999 60 58.9999 46.9999 69.9999 52.5C80.9999 58 85.9999 38.4999 100.5 58.5001V58.5001C105.784 65.4534 104.56 75.3522 97.74 80.808L93.4267 84.2587C86.771 89.5833 77.6192 90.5314 70.0133 86.6843L60.4993 81.8721" stroke="white" stroke-width="4" stroke-linecap="round"/>
</svg>
