<svg width="1920" height="162" viewBox="0 0 1920 162" fill="none" xmlns="http://www.w3.org/2000/svg">
<path d="M1933.5 138.5L1873.06 81.8941C1871.59 80.5235 1869.34 80.4482 1867.79 81.7178L1835.26 108.337C1833.48 109.785 1830.86 109.456 1829.5 107.615L1760.69 14.3201C1759.1 12.1657 1755.88 12.1501 1754.27 14.289L1690.01 99.672C1688.64 101.488 1686.04 101.801 1684.28 100.362L1629.77 55.7656C1628.19 54.4756 1625.9 54.5767 1624.44 56.0004L1540 138.5L1419.29 13.4066C1417.57 11.6249 1414.66 11.8172 1413.19 13.8097L1344 107.615C1342.64 109.456 1340.02 109.785 1338.24 108.337L1305.83 81.8144C1304.23 80.5038 1301.89 80.6316 1300.44 82.109L1225.5 158.5L1165.06 101.894C1163.59 100.524 1161.34 100.448 1159.79 101.718L1127.54 128.103C1125.67 129.636 1122.87 129.166 1121.6 127.105L1052.54 14.9396C1051.07 12.5547 1047.67 12.3783 1045.96 14.5986L963 122.5L884.53 42.0921C883.094 40.6208 880.776 40.4775 879.17 41.7606L795.027 108.981C793.553 110.159 791.457 110.147 789.997 108.952L756.711 81.7177C755.159 80.4481 752.907 80.5234 751.444 81.8939L691 138.5M385.5 128.5L301.059 46.0004C299.602 44.5767 297.308 44.4756 295.731 45.7656L241.224 90.3623C239.465 91.8014 236.862 91.4878 235.495 89.672L171.228 4.28902C169.618 2.15011 166.403 2.16569 164.813 4.32009L95.9967 97.6152C94.6385 99.4565 92.0155 99.7855 90.2447 98.3366L57.7107 71.7178C56.1589 70.4482 53.9069 70.5235 52.4435 71.8941L-8 132.5M690.5 139L565.284 3.55263C563.58 1.70906 560.618 1.87305 559.128 3.89352L489.997 97.6152C488.639 99.4565 486.016 99.7855 484.245 98.3366L451.711 71.7178C450.159 70.4482 447.907 70.5235 446.443 71.8941L386 128.5" stroke="white" stroke-width="4" stroke-linecap="round"/>
</svg>
