<svg width="11" height="21" viewBox="0 0 11 21" fill="none" xmlns="http://www.w3.org/2000/svg">
<path d="M10.5858 0.00433333L7.94737 -0.000244141C4.98322 -0.000244141 3.06766 2.12485 3.06766 5.41399V7.91031H0.414863C0.18563 7.91031 0 8.11126 0 8.35913V11.976C0 12.2239 0.185842 12.4246 0.414863 12.4246H3.06766V20.5512C3.06766 20.799 3.25329 20.9998 3.48252 20.9998H6.94366C7.17289 20.9998 7.35852 20.7988 7.35852 20.5512V12.4246H10.4603C10.6895 12.4246 10.8751 12.2239 10.8751 11.976L10.8764 8.35913C10.8764 8.24011 10.8326 8.12614 10.7549 8.04191C10.6772 7.95768 10.5714 7.91031 10.4613 7.91031H7.35852V5.79414C7.35852 4.77703 7.58267 4.26069 8.808 4.26069L10.5853 4.26001C10.8144 4.26001 11 4.05905 11 3.81141V0.452925C11 0.205513 10.8146 0.00479107 10.5858 0.00433333Z" fill="white"/>
</svg>
