<svg width="22" height="22" viewBox="0 0 22 22" fill="none" xmlns="http://www.w3.org/2000/svg">
<path fill-rule="evenodd" clip-rule="evenodd" d="M0 4.99976C0 2.23833 2.23858 -0.000244141 5 -0.000244141H17C19.7614 -0.000244141 22 2.23833 22 4.99976V16.9998C22 19.7612 19.7614 21.9998 17 21.9998H5C2.23858 21.9998 0 19.7612 0 16.9998V4.99976ZM5 1.99976C3.34315 1.99976 2 3.3429 2 4.99976V16.9998C2 18.6566 3.34315 19.9998 5 19.9998H17C18.6569 19.9998 20 18.6566 20 16.9998V4.99976C20 3.3429 18.6569 1.99976 17 1.99976H5Z" fill="#949EA8"/>
<path fill-rule="evenodd" clip-rule="evenodd" d="M11 7.49976C9.067 7.49976 7.5 9.06676 7.5 10.9998C7.5 12.9328 9.067 14.4998 11 14.4998C12.933 14.4998 14.5 12.9328 14.5 10.9998C14.5 9.06676 12.933 7.49976 11 7.49976ZM5.5 10.9998C5.5 7.96219 7.96243 5.49976 11 5.49976C14.0376 5.49976 16.5 7.96219 16.5 10.9998C16.5 14.0373 14.0376 16.4998 11 16.4998C7.96243 16.4998 5.5 14.0373 5.5 10.9998Z" fill="#949EA8"/>
<path d="M18.5 4.99976C18.5 5.82818 17.8284 6.49976 17 6.49976C16.1716 6.49976 15.5 5.82818 15.5 4.99976C15.5 4.17133 16.1716 3.49976 17 3.49976C17.8284 3.49976 18.5 4.17133 18.5 4.99976Z" fill="#949EA8"/>
</svg>
