<svg width="18" height="14" viewBox="0 0 18 14" fill="none" xmlns="http://www.w3.org/2000/svg">
<path fill-rule="evenodd" clip-rule="evenodd" d="M0 4C0 1.79086 1.79086 0 4 0H14C16.2091 0 18 1.79086 18 4V10C18 12.2091 16.2091 14 14 14H4C1.79086 14 0 12.2091 0 10V4ZM4 2C2.89543 2 2 2.89543 2 4V6H5C6.10457 6 7 5.10457 7 4V2H4ZM5 8H2V9H16V8H5ZM15.7324 11C15.3866 11.5978 14.7403 12 14 12H4C3.25972 12 2.61337 11.5978 2.26756 11H15.7324ZM9 2H14C14.7403 2 15.3866 2.4022 15.7324 3H9V2ZM8.87398 5H16V6H8.46487C8.64391 5.69049 8.78267 5.35477 8.87398 5Z" fill="white"/>
</svg>
