<svg width="120" height="24" viewBox="0 0 120 24" fill="none" xmlns="http://www.w3.org/2000/svg">
<path d="M4.25457 20.3712C4.50048 18.841 5.14286 15.8513 6.71369 12.8642C9.64205 7.297 14.2993 4.47542 20.5575 4.47542C24.8434 4.47542 28.1181 5.81567 30.2886 8.45818C33.5482 12.4301 33.5758 18.3635 33.4805 20.3685H36.7024C36.8153 17.7314 36.6623 11.003 32.7101 6.17108C29.9022 2.73907 25.8145 1 20.5575 1C11.2179 1 6.35486 6.51564 3.92083 11.1468C1.90335 14.9804 1.21329 18.7895 1 20.3712H4.25457Z" fill="#949EA8"/>
<path d="M15.0829 19.5976C15.0829 21.5157 13.6451 23.073 11.8685 23.073C10.0944 23.073 8.65405 21.5157 8.65405 19.5976C8.65405 17.6795 10.0944 16.1222 11.8685 16.1222C13.6451 16.1222 15.0829 17.6795 15.0829 19.5976Z" fill="#949EA8"/>
<path d="M28.8919 19.5976C28.8919 21.5157 27.454 23.073 25.6774 23.073C23.9034 23.073 22.463 21.5157 22.463 19.5976C22.463 17.6795 23.9034 16.1222 25.6774 16.1222C27.4515 16.1222 28.8919 17.6795 28.8919 19.5976Z" fill="#949EA8"/>
<path d="M43.1302 20.1512V8.98425H47.7675C49.5415 8.98425 50.8464 9.43462 51.6795 10.3381C52.5151 11.2415 52.9316 12.6496 52.9316 14.5677C52.9316 16.4858 52.5151 17.8966 51.6795 18.7974C50.8439 19.7008 49.5415 20.1512 47.7675 20.1512H43.1302ZM47.238 17.8315C47.8076 17.8315 48.2844 17.7745 48.6683 17.6633C49.0522 17.5521 49.3609 17.3676 49.5942 17.1153C49.8276 16.863 49.9957 16.5293 50.0986 16.1142C50.2015 15.6991 50.2542 15.1836 50.2542 14.5677C50.2542 13.9519 50.2015 13.4364 50.0986 13.0213C49.9957 12.6062 49.8251 12.2725 49.5942 12.0202C49.3609 11.7678 49.0522 11.5861 48.6683 11.4721C48.2844 11.3609 47.8076 11.3039 47.238 11.3039H45.6822V17.8315H47.238Z" fill="#949EA8"/>
<path d="M54.743 20.1513V9.68433H59.2447C60.3688 9.68433 61.1768 9.94478 61.6662 10.4684C62.1555 10.9893 62.3989 11.8602 62.3989 13.0729V14.6167H59.7415V13.3714C59.7415 12.8423 59.6386 12.4679 59.4354 12.2454C59.2296 12.023 58.8884 11.9117 58.4141 11.9117H57.4028V20.1486H54.743V20.1513Z" fill="#949EA8"/>
<path d="M64.103 5.91028H66.7603V8.50667H64.103V5.91028ZM64.103 9.68414H66.7603V20.1511H64.103V9.68414Z" fill="#949EA8"/>
<path d="M71.9224 20.1513L68.0757 9.68433H70.7732L73.4105 17.1072L76.0502 9.68433H78.6875L74.8383 20.1513H71.9224Z" fill="#949EA8"/>
<path d="M84.2817 20.1513C82.6807 20.1513 81.4738 19.7118 80.6607 18.8327C79.8477 17.9537 79.4412 16.6487 79.4412 14.9178C79.4412 13.1869 79.8477 11.8819 80.6607 11.0029C81.4738 10.1238 82.6807 9.68433 84.2817 9.68433H87.8725V11.8521H84.6179C83.7848 11.8521 83.1826 12.0121 82.8137 12.335C82.4424 12.6578 82.224 13.138 82.1588 13.7837H87.7922V15.9298H82.1588C82.1864 16.5592 82.3846 17.0557 82.7535 17.4192C83.1249 17.7828 83.7447 17.9673 84.6179 17.9673H87.9503V20.154H84.2817V20.1513Z" fill="#949EA8"/>
<path d="M96.9549 20.1513V13.9954C96.9549 13.2656 96.8068 12.7419 96.5082 12.4191C96.2096 12.0962 95.7253 11.9362 95.0503 11.9362H92.8471V20.1513H90.1898V9.68433H95.6049C97.0076 9.68433 98.0263 10.0289 98.6612 10.7126C99.2961 11.399 99.6122 12.5005 99.6122 14.0144V20.1486H96.9549V20.1513Z" fill="#949EA8"/>
<path d="M105.547 20.1514C104.476 20.1514 103.715 19.9072 103.266 19.4215C102.817 18.9359 102.591 18.1139 102.591 16.9554V11.8738H101.143V9.68711H102.591V6.9198H105.249V9.68711H108.423V11.8738H105.249V16.8279C105.249 17.243 105.329 17.5387 105.487 17.7178C105.645 17.8968 105.916 17.9863 106.3 17.9863H108.423V20.1541H105.547V20.1514Z" fill="#949EA8"/>
<path d="M112.649 20.1514C111.67 20.1514 110.915 19.8665 110.388 19.2941C109.859 18.7216 109.595 17.9077 109.595 16.8496C109.595 15.7915 109.859 14.9749 110.388 14.4051C110.917 13.8327 111.67 13.5478 112.649 13.5478H116.34V13.3118C116.34 12.7827 116.24 12.411 116.042 12.1967C115.843 11.9824 115.499 11.8739 115.01 11.8739H110.23V9.68713H115.111C116.486 9.68713 117.477 10.0154 118.087 10.6747C118.694 11.3312 119 12.4056 119 13.8924V20.1568H112.649V20.1514ZM116.378 15.6911H113.362C112.646 15.6911 112.29 16.0764 112.29 16.8496C112.29 17.6201 112.646 18.0081 113.362 18.0081H116.378V15.6911Z" fill="#949EA8"/>
</svg>
