<svg width="110" height="22" viewBox="0 0 110 22" fill="none" xmlns="http://www.w3.org/2000/svg">
<path d="M3.90004 18.6736C4.12546 17.2709 4.71431 14.5303 6.15424 11.7921C8.83857 6.68887 13.1077 4.10243 18.8444 4.10243C22.7732 4.10243 25.7749 5.33099 27.7646 7.7533C30.7525 11.3942 30.7778 16.8332 30.6904 18.6711H33.6439C33.7474 16.2537 33.6071 10.0861 29.9843 5.65678C27.4104 2.51077 23.6633 0.916626 18.8444 0.916626C10.2831 0.916626 5.82531 5.97263 3.59412 10.2179C1.74476 13.732 1.1122 17.2237 0.916687 18.6736H3.90004Z" fill="#FF4C29"/>
<path d="M13.826 17.9645C13.826 19.7228 12.508 21.1503 10.8794 21.1503C9.25317 21.1503 7.93286 19.7228 7.93286 17.9645C7.93286 16.2062 9.25317 14.7787 10.8794 14.7787C12.508 14.7787 13.826 16.2062 13.826 17.9645Z" fill="#FF4C29"/>
<path d="M26.4842 17.9645C26.4842 19.7228 25.1662 21.1503 23.5377 21.1503C21.9114 21.1503 20.5911 19.7228 20.5911 17.9645C20.5911 16.2062 21.9114 14.7787 23.5377 14.7787C25.1639 14.7787 26.4842 16.2062 26.4842 17.9645Z" fill="#FF4C29"/>
<path d="M39.5361 18.4719V8.2356H43.7869C45.4131 8.2356 46.6092 8.64843 47.3729 9.47659C48.1389 10.3048 48.5207 11.5955 48.5207 13.3538C48.5207 15.1121 48.1389 16.4053 47.3729 17.231C46.6069 18.0591 45.4131 18.4719 43.7869 18.4719H39.5361ZM43.3016 16.3456C43.8237 16.3456 44.2607 16.2934 44.6127 16.1914C44.9646 16.0894 45.2475 15.9203 45.4614 15.689C45.6754 15.4577 45.8295 15.1518 45.9238 14.7713C46.0181 14.3908 46.0664 13.9183 46.0664 13.3538C46.0664 12.7892 46.0181 12.3167 45.9238 11.9362C45.8295 11.5557 45.6731 11.2498 45.4614 11.0185C45.2475 10.7872 44.9646 10.6206 44.6127 10.5161C44.2607 10.4142 43.8237 10.362 43.3016 10.362H41.8754V16.3456H43.3016V16.3456Z" fill="#0C0C0D"/>
<path d="M50.181 18.472V8.87732H54.3076C55.3381 8.87732 56.0787 9.11607 56.5273 9.59605C56.9758 10.0736 57.1989 10.8719 57.1989 11.9835V13.3986H54.763V12.2571C54.763 11.7721 54.6687 11.4289 54.4824 11.225C54.2938 11.0211 53.981 10.9191 53.5462 10.9191H52.6192V18.4695H50.181V18.472Z" fill="#0C0C0D"/>
<path d="M58.7611 5.41772H61.197V7.79775H58.7611V5.41772ZM58.7611 8.87709H61.197V18.4718H58.7611V8.87709Z" fill="#0C0C0D"/>
<path d="M65.9289 18.472L62.4027 8.87732H64.8754L67.2929 15.6817L69.7127 8.87732H72.1302L68.6017 18.472H65.9289Z" fill="#0C0C0D"/>
<path d="M77.2582 18.472C75.7907 18.472 74.6843 18.0691 73.939 17.2634C73.1937 16.4576 72.8211 15.2614 72.8211 13.6747C72.8211 12.088 73.1937 10.8918 73.939 10.086C74.6843 9.28021 75.7907 8.87732 77.2582 8.87732H80.5498V10.8644H77.5664C76.8028 10.8644 76.2507 11.0111 75.9126 11.3071C75.5721 11.603 75.372 12.0432 75.3122 12.6351H80.4762V14.6023H75.3122C75.3375 15.1793 75.5192 15.6344 75.8574 15.9677C76.1978 16.3009 76.766 16.47 77.5664 16.47H80.6211V18.4745H77.2582V18.472Z" fill="#0C0C0D"/>
<path d="M88.8753 18.472V12.8291C88.8753 12.1601 88.7396 11.6801 88.4659 11.3842C88.1922 11.0882 87.7482 10.9415 87.1295 10.9415H85.1099V18.472H82.674V8.87732H87.6378C88.9236 8.87732 89.8575 9.19316 90.4394 9.81988C91.0214 10.4491 91.3112 11.4588 91.3112 12.8465V18.4695H88.8753V18.472Z" fill="#0C0C0D"/>
<path d="M96.7516 18.4721C95.7694 18.4721 95.0724 18.2482 94.6607 17.8031C94.249 17.3579 94.0419 16.6044 94.0419 15.5424V10.8843H92.7147V8.87984H94.0419V6.34314H96.4779V8.87984H99.3876V10.8843H96.4779V15.4255C96.4779 15.806 96.5515 16.0771 96.6964 16.2413C96.8413 16.4054 97.0897 16.4875 97.4416 16.4875H99.3876V18.4746H96.7516V18.4721Z" fill="#0C0C0D"/>
<path d="M103.262 18.4721C102.364 18.4721 101.672 18.211 101.189 17.6862C100.704 17.1615 100.462 16.4154 100.462 15.4455C100.462 14.4756 100.704 13.727 101.189 13.2047C101.674 12.68 102.364 12.4188 103.262 12.4188H106.645V12.2025C106.645 11.7175 106.553 11.3768 106.371 11.1803C106.19 10.9839 105.875 10.8844 105.426 10.8844H101.044V8.87988H105.518C106.779 8.87988 107.687 9.18081 108.246 9.78514C108.803 10.387 109.083 11.3718 109.083 12.7347V18.4771H103.262V18.4721ZM106.68 14.3835H103.915C103.259 14.3835 102.933 14.7367 102.933 15.4455C102.933 16.1518 103.259 16.5074 103.915 16.5074H106.68V14.3835Z" fill="#0C0C0D"/>
</svg>
